<svg xmlns="http://www.w3.org/2000/svg" viewBox="0 0 512 512" width="100%" height="100%">
  <defs>
    <radialGradient id="bg" cx="50%" cy="50%" r="50%">
      <stop offset="0%" stop-color="#141f30" />
      <stop offset="100%" stop-color="#070a0f" />
    </radialGradient>
    <linearGradient id="goldGrad" x1="0%" y1="0%" x2="100%" y2="100%">
      <stop offset="0%" stop-color="#F5E296" />
      <stop offset="50%" stop-color="#D4AF37" />
      <stop offset="100%" stop-color="#9A7B1C" />
    </linearGradient>
    <linearGradient id="redGrad" x1="0%" y1="0%" x2="100%" y2="100%">
      <stop offset="0%" stop-color="#E83B43" />
      <stop offset="100%" stop-color="#8B1A1E" />
    </linearGradient>
    <linearGradient id="greenGrad" x1="0%" y1="0%" x2="100%" y2="100%">
      <stop offset="0%" stop-color="#00A859" />
      <stop offset="100%" stop-color="#004724" />
    </linearGradient>
  </defs>

  <rect width="512" height="512" rx="110" fill="url(#bg)" stroke="url(#goldGrad)" stroke-width="14" />

  <g transform="translate(136, 110)">
    <rect x="80" y="0" width="80" height="80" rx="10" fill="url(#redGrad)" stroke="#FF6B72" stroke-width="4" />
    <rect x="0" y="80" width="80" height="80" rx="10" fill="url(#redGrad)" stroke="#FF6B72" stroke-width="4" />
    <rect x="80" y="80" width="80" height="80" rx="10" fill="url(#redGrad)" stroke="#FF6B72" stroke-width="4" />
    <rect x="160" y="80" width="80" height="80" rx="10" fill="url(#redGrad)" stroke="#FF6B72" stroke-width="4" />
  </g>

  <g transform="translate(256, 330) scale(1.35)">
    <polygon points="0,-75 22,-23 76,-23 32,9 49,61 0,28 -49,61 -32,9 -76,-23 -22,-23" 
             fill="url(#greenGrad)" stroke="url(#goldGrad)" stroke-width="8" stroke-linejoin="round" />
  </g>
</svg>
